<svg width="308" height="244" viewBox="0 0 308 244" fill="none" xmlns="http://www.w3.org/2000/svg">
<g id="Group 8">
<path id="first-line" d="M293 0H15C6.71573 0 0 6.71573 0 15C0 23.2843 6.71573 30 15 30H293C301.284 30 308 23.2843 308 15C308 6.71573 301.284 0 293 0Z" fill="black"/>
<path id="third-line" d="M293 214H15C6.71573 214 0 220.716 0 229C0 237.284 6.71573 244 15 244H293C301.284 244 308 237.284 308 229C308 220.716 301.284 214 293 214Z" fill="black"/>
<path id="second-line" d="M293 107H15C6.71573 107 0 113.716 0 122C0 130.284 6.71573 137 15 137H293C301.284 137 308 130.284 308 122C308 113.716 301.284 107 293 107Z" fill="black"/>
</g>
</svg>
