<svg width="640" height="453" viewBox="0 0 640 453" fill="none" xmlns="http://www.w3.org/2000/svg">
<g id="object">
<g id="Group">
<path id="Vector" d="M179.881 433.506C210.786 441.048 244.268 449.924 273.374 437.075C298.322 426.088 314.644 401.166 338.785 388.503C360.164 377.299 386.012 376.865 409.378 383.041C432.712 389.217 453.968 401.508 474.075 414.915C462.253 403.37 457.536 386.393 455.271 370.037C453.223 355.294 452.82 340.025 456.916 325.686C461.012 311.378 470.103 298.001 483.384 291.235C490.707 287.511 500.078 284.811 502.53 276.959C504.454 270.845 501.071 264.451 497.751 258.989C488.597 243.874 478.978 228.821 473.268 212.093C469.266 200.33 467.28 187.916 462.532 176.432C456.947 162.931 447.762 151.106 442.549 137.45C437.336 123.794 437.057 106.507 447.638 96.4205C455.054 89.3131 466.07 87.3889 474.324 81.2747C482.577 75.1606 483.353 60.6977 473.982 56.5388C445.217 62.4047 416.639 74.1674 387.564 70.0706C343.005 63.7703 310.392 21.9643 266.268 13.0259C234.524 6.5703 202.191 18.1158 171.596 28.7613C140.969 39.4067 107.674 49.3384 76.706 39.7792C51.2614 31.927 31.1541 11.9085 6.20599 2.62869C4.15801 1.88382 2.07901 1.20102 0 0.611328V441.42C10.4571 438.813 20.6349 434.034 30.8748 430.402C78.3816 413.581 130.915 421.557 179.881 433.506Z" fill="#D5D3EA"/>
<g id="Group_2">
<path id="Vector_2" d="M497.72 258.989C488.566 243.874 478.947 228.821 473.237 212.093C469.235 200.33 467.249 187.916 462.501 176.432C456.978 163.056 447.917 151.324 442.673 137.854C442.549 138.257 442.425 138.692 442.27 139.095C438.05 150.517 423.745 154.117 415.242 162.869C400.348 178.17 407.051 203.341 414.156 223.483C421.324 243.843 427.996 264.917 427.375 286.487C426.755 308.057 417.57 330.528 399.2 341.856C374.935 356.815 343.284 348.715 315.636 355.605C275.266 365.661 245.85 407.032 204.301 409.08C188.507 409.856 173.085 404.642 158.097 399.521C131.691 390.459 105.285 381.396 78.9091 372.333C53.7749 363.705 28.2062 354.984 1.64459 354.177C1.08605 354.146 0.558539 354.146 0 354.146V441.389C10.4571 438.782 20.6349 434.003 30.8748 430.371C78.3816 413.55 130.915 421.526 179.88 433.475C210.786 441.017 244.268 449.893 273.374 437.044C298.322 426.057 314.643 401.135 338.785 388.472C360.164 377.268 386.012 376.834 409.378 383.01C432.712 389.186 453.968 401.477 474.075 414.884C462.253 403.339 457.536 386.362 455.271 370.006C453.223 355.263 452.82 339.994 456.916 325.655C461.012 311.347 470.103 297.97 483.384 291.204C490.707 287.48 500.078 284.78 502.53 276.928C504.423 270.845 501.04 264.451 497.72 258.989Z" fill="#E8E8F9"/>
<path id="Vector_3" d="M109.753 107.687C137.214 102.473 160.394 84.5646 186.49 74.5399C219.351 61.9081 257.052 62.4047 289.602 75.8744C299.997 80.1885 309.927 85.775 320.818 88.6925C338.816 93.5341 357.899 90.6788 376.486 92.2616C392.311 93.5962 407.857 98.1896 421.883 105.669C428.368 109.145 434.915 114.359 439.042 120.412C438.763 111.38 441.184 102.566 447.638 96.3895C455.054 89.2821 466.07 87.3579 474.323 81.2437C482.577 75.1296 483.353 60.6666 473.982 56.5078C445.217 62.3736 416.639 74.1364 387.564 70.0396C343.005 63.7392 310.392 21.9333 266.268 12.9948C234.524 6.53929 202.191 18.0848 171.596 28.7303C140.969 39.3757 107.674 49.3073 76.706 39.7482C51.2614 31.896 31.154 11.8775 6.20599 2.59768C4.15801 1.85281 2.07901 1.17001 0 0.580322V80.3126C11.7914 85.9613 23.5207 91.703 35.6534 96.6067C59.112 106.104 84.8669 112.435 109.753 107.687Z" fill="#E8E8F9"/>
</g>
</g>
<g id="Group_3">
<path id="Vector_4" d="M243.213 452.811C362.249 452.811 458.747 448.878 458.747 444.027C458.747 439.176 362.249 435.244 243.213 435.244C124.177 435.244 27.6787 439.176 27.6787 444.027C27.6787 448.878 124.177 452.811 243.213 452.811Z" fill="#D5D3EA"/>
<path id="Vector_5" d="M533.218 452.811C592.051 452.811 639.744 448.878 639.744 444.027C639.744 439.176 592.051 435.244 533.218 435.244C474.386 435.244 426.693 439.176 426.693 444.027C426.693 448.878 474.386 452.811 533.218 452.811Z" fill="#D5D3EA"/>
<g id="Group_4">
<g id="Group_5">
<path id="Vector_6" d="M510.877 229.194C511.56 231.304 511.87 233.539 513.018 235.432C514.166 237.325 516.493 238.784 518.541 237.977C519.565 237.574 520.31 236.705 521.148 235.991C523.692 233.88 527.54 232.98 528.75 229.908C529.433 228.17 529.06 226.121 529.898 224.476C530.612 223.049 532.07 222.118 532.784 220.721C533.777 218.766 533.094 216.283 531.698 214.607C530.302 212.931 528.285 211.876 526.33 210.882C524.716 210.075 523.103 209.268 521.396 208.772C519.348 208.182 517.176 207.996 515.159 207.313C512.615 206.444 510.442 204.799 507.991 203.713C506.626 203.092 505.074 202.658 503.616 203.061C502.002 203.527 500.854 204.954 499.985 206.382C498.682 208.524 497.131 211.627 497.224 214.234C497.317 216.624 498.868 217.245 500.823 218.176C505.478 220.473 509.232 224.197 510.877 229.194Z" fill="#7C3938"/>
<g id="Group_6">
<path id="Vector_7" d="M504.33 233.942C502.871 233.942 501.475 233.073 500.885 231.615C500.109 229.721 501.009 227.549 502.933 226.742L523.599 218.269C526.547 217.059 528.843 214.762 530.022 211.782C531.201 208.803 531.108 205.575 529.774 202.658L529.309 201.634C527.075 196.792 521.861 194.061 516.617 195.023L468.8 202.968C466.783 203.341 464.828 202.006 464.456 199.989C464.084 197.971 465.418 196.016 467.435 195.644L515.252 187.698C523.847 186.115 532.412 190.585 536.042 198.53L536.508 199.554C538.68 204.334 538.835 209.641 536.911 214.514C534.987 219.386 531.233 223.173 526.392 225.159L505.726 233.632C505.26 233.849 504.795 233.942 504.33 233.942Z" fill="#10191C"/>
</g>
<path id="Vector_8" d="M516.183 207.655C515.842 207.561 515.469 207.468 515.128 207.344C512.584 206.475 510.411 204.83 507.96 203.744C506.595 203.123 505.043 202.689 503.585 203.092C501.971 203.558 500.823 204.985 499.954 206.413C498.651 208.555 497.1 211.658 497.193 214.265C497.286 216.655 498.837 217.276 500.792 218.207C502.809 219.169 504.671 220.442 506.253 221.931C510.97 218.393 514.476 213.303 516.183 207.655Z" fill="#7C3938"/>
<g id="Group_7">
<path id="Vector_9" d="M392.28 92.4477C386.292 98.4998 384.244 107.407 387.005 115.477C394.173 136.333 410.185 178.232 425.607 186.364C446.304 197.257 504.671 220.597 504.671 220.597L513.08 206.475C513.08 206.475 457.319 166.935 449.934 155.389C443.759 145.737 432.371 109.052 428.834 97.3825C427.499 92.9443 424.831 88.9717 421.107 86.2094C415.181 81.7402 405.375 79.2573 392.28 92.4477Z" fill="#303454"/>
</g>
</g>
<path id="Vector_10" d="M331.089 358.957H301.456C299.16 358.957 297.298 360.819 297.298 363.116C297.298 365.412 299.16 367.274 301.456 367.274H331.089C333.386 367.274 335.247 365.412 335.247 363.116C335.247 360.819 333.386 358.957 331.089 358.957Z" fill="#273941"/>
<path id="Vector_11" d="M320.57 334.686L308.686 361.346H361.809C361.809 361.346 351.973 349.366 336.364 348.125H330.531L335.93 334.066L320.57 334.686Z" fill="#10191C"/>
<path id="Vector_12" d="M277.842 163.924L369.132 272.955C369.132 272.955 356.131 277.642 349.769 284.997C340.088 296.232 317.436 337.976 317.436 337.976L334.223 346.48C334.223 346.48 406.616 283.414 406.027 274.6C405.437 265.786 348.745 155.172 348.745 155.172C348.745 155.172 283.614 133.385 277.842 163.924Z" fill="#303454"/>
<g id="right-whell">
<path id="Vector_13" d="M532.908 444.027C509.45 444.027 487.418 434.903 470.848 418.298C454.278 401.694 445.125 379.658 445.125 356.225C445.125 332.762 454.247 310.726 470.848 294.153C487.449 277.579 509.481 268.424 532.908 268.424C556.367 268.424 578.398 277.548 594.968 294.153C611.538 310.757 620.692 332.793 620.692 356.225C620.692 379.689 611.569 401.725 594.968 418.298C578.367 434.872 556.367 444.027 532.908 444.027ZM532.908 279.007C512.273 279.007 492.88 287.046 478.296 301.633C463.711 316.22 455.675 335.617 455.675 356.257C455.675 376.896 463.711 396.293 478.296 410.88C492.88 425.468 512.273 433.506 532.908 433.506C553.543 433.506 572.937 425.468 587.521 410.88C602.105 396.293 610.142 376.896 610.142 356.257C610.142 335.617 602.105 316.22 587.521 301.633C572.937 287.046 553.543 279.007 532.908 279.007Z" fill="#273941"/>
<path id="Vector_14" d="M532.908 372.799C543.43 372.799 551.96 364.267 551.96 353.743C551.96 343.218 543.43 334.686 532.908 334.686C522.386 334.686 513.856 343.218 513.856 353.743C513.856 364.267 522.386 372.799 532.908 372.799Z" fill="#273941"/>
<path id="Vector_15" d="M580.136 314.575C574.829 310.416 568.437 308.057 562.2 305.76C561.021 305.326 560.525 307.188 561.673 307.654C567.506 309.919 573.588 312.247 578.522 316.22C580.601 317.896 582.494 319.882 583.952 322.117C585.473 324.444 586.248 327.02 587.365 329.534C587.769 330.403 588.979 329.876 589.01 329.1C589.382 323.358 584.325 317.834 580.136 314.575Z" fill="#9CC8DA"/>
<path id="Vector_16" d="M586.466 311.719C585.628 310.323 584.759 308.957 583.921 307.561C583.115 306.257 581.098 307.436 581.873 308.771C582.68 310.168 583.518 311.564 584.325 312.992C585.131 314.389 587.335 313.116 586.466 311.719Z" fill="#9CC8DA"/>
<path id="Vector_17" d="M563.348 398.963C558.973 400.732 554.753 402.904 550.502 404.922C548.982 405.635 550.316 407.87 551.836 407.187C556.025 405.263 560.276 403.463 564.341 401.29C565.583 400.608 564.714 398.404 563.348 398.963Z" fill="#9CC8DA"/>
<path id="Vector_18" d="M570.02 405.418C566.389 406.349 562.976 408.336 559.532 409.856C556.118 411.377 552.612 412.743 549.012 413.767C541.782 415.846 534.273 416.374 526.888 414.698C525.833 414.45 524.995 416.064 526.112 416.56C533.342 419.85 541.658 419.664 549.261 417.802C553.139 416.839 556.925 415.474 560.587 413.891C564.341 412.246 568.344 410.57 571.54 407.994C572.812 406.97 571.416 405.046 570.02 405.418Z" fill="#9CC8DA"/>
<path id="Vector_19" d="M489.497 387.014C487.108 383.32 484.718 379.689 482.857 375.716C481.026 371.806 479.723 367.678 478.885 363.426C477.178 354.829 477.582 345.921 479.909 337.511C481.274 332.638 483.353 328.076 486.177 323.855C487.015 322.582 484.998 321.434 484.129 322.675C473.579 337.976 471.717 358.336 478.823 375.468C480.84 380.341 483.477 385.058 487.325 388.721C488.411 389.714 490.366 388.379 489.497 387.014Z" fill="#9CC8DA"/>
<path id="Vector_20" d="M493.438 371.247C491.235 367.088 489.28 363.053 488.69 358.336C488.535 357.063 486.549 357.032 486.674 358.336C487.201 363.302 488.753 368.485 492.166 372.24C492.786 372.923 493.841 372.023 493.438 371.247Z" fill="#9CC8DA"/>
<path id="Vector_21" d="M500.327 370.223C498.62 367.678 497.596 364.761 497.844 361.688C497.937 360.322 495.92 360.384 495.734 361.688C495.269 365.288 496.231 368.795 498.837 371.371C499.582 372.116 500.947 371.154 500.327 370.223Z" fill="#9CC8DA"/>
</g>
<g id="Group_8">
<path id="Vector_22" d="M509.542 233.942C508.084 233.942 506.688 233.073 506.098 231.615C505.322 229.721 506.222 227.549 508.146 226.742L528.812 218.269C531.76 217.059 534.056 214.762 535.235 211.782C536.414 208.803 536.321 205.575 534.987 202.658L534.522 201.634C532.287 196.792 527.074 194.061 521.83 195.023L460.205 206.32C458.188 206.693 456.233 205.358 455.861 203.341C455.488 201.323 456.823 199.368 458.84 198.995L520.465 187.698C529.06 186.115 537.625 190.585 541.255 198.53L541.721 199.554C543.893 204.334 544.048 209.641 542.124 214.514C540.2 219.386 536.445 223.173 531.605 225.159L510.939 233.632C510.473 233.849 510.008 233.942 509.542 233.942Z" fill="#1C2B30"/>
</g>
<path id="Vector_23" d="M473.92 199.461C473.548 198.375 472.493 197.692 471.345 197.785L466.38 198.251C464.828 198.406 463.804 199.896 464.208 201.385L472.027 229.411L483.198 226.99L473.92 199.461Z" fill="#273941"/>
<path id="Vector_24" d="M467.931 219.759L466.597 214.545L480.188 212.589L481.336 218.859L467.931 219.759Z" fill="#1C2B30"/>
<g id="left-whell">
<path id="Vector_25" d="M251.032 441.451C225.991 441.451 202.47 431.706 184.752 413.984C167.034 396.262 157.291 372.737 157.291 347.691C157.291 322.644 167.034 299.119 184.752 281.397C202.47 263.675 225.991 253.93 251.032 253.93C276.073 253.93 299.594 263.675 317.312 281.397C335.03 299.119 344.774 322.644 344.774 347.691C344.774 372.737 335.03 396.262 317.312 413.984C299.594 431.706 276.073 441.451 251.032 441.451ZM251.032 264.513C228.815 264.513 207.932 273.172 192.23 288.877C176.529 304.581 167.872 325.469 167.872 347.691C167.872 369.913 176.529 390.8 192.23 406.504C207.932 422.209 228.815 430.868 251.032 430.868C273.25 430.868 294.133 422.209 309.834 406.504C325.535 390.8 334.192 369.913 334.192 347.691C334.192 325.469 325.535 304.581 309.834 288.877C294.133 273.172 273.25 264.513 251.032 264.513Z" fill="#273941"/>
<path id="Vector_26" d="M217.179 286.363C209.018 292.291 201.943 299.522 196.202 307.84C193.316 312.03 190.803 316.468 188.693 321.092C186.614 325.655 184.659 330.465 183.976 335.462C183.759 337.014 185.745 337.604 186.335 336.114C188.103 331.49 189.5 326.741 191.548 322.21C193.503 317.865 195.768 313.675 198.405 309.702C203.774 301.54 210.569 294.277 218.389 288.411C219.537 287.511 218.389 285.463 217.179 286.363Z" fill="white"/>
<path id="Vector_27" d="M207.745 305.233C203.029 311.533 198.902 318.703 196.668 326.307C196.264 327.672 198.281 328.169 198.747 326.865C201.508 319.479 204.642 312.526 209.173 306.04C209.793 305.202 208.366 304.395 207.745 305.233Z" fill="white"/>
<path id="Vector_28" d="M210.104 316.033C208.211 319.975 206.256 323.855 204.518 327.858C204.084 328.852 205.48 329.752 206.039 328.727C208.056 324.879 209.886 320.906 211.748 316.965C212.245 315.878 210.631 314.916 210.104 316.033Z" fill="white"/>
<path id="Vector_29" d="M242.313 414.481C230.428 411.719 219.195 403.339 214.82 391.669C214.386 390.521 212.493 391.017 212.927 392.197C215.286 398.466 218.792 403.99 223.881 408.429C228.908 412.805 235.021 415.908 241.63 416.995C243.244 417.243 243.957 414.884 242.313 414.481Z" fill="white"/>
<path id="Vector_30" d="M242.22 405.697C235.517 404.115 229.373 401.135 225.122 395.518C224.378 394.524 222.702 395.424 223.416 396.511C227.543 402.656 234.369 407.467 241.909 407.839C243.151 407.901 243.43 405.977 242.22 405.697Z" fill="white"/>
<path id="Vector_31" d="M252.553 399.863C249.481 398.497 246.253 397.535 243.026 396.511C241.506 396.014 240.885 398.373 242.375 398.9C245.447 400.018 248.488 401.197 251.653 401.942C252.894 402.252 253.794 400.421 252.553 399.863Z" fill="white"/>
<path id="Vector_32" d="M304.683 327.207C304.435 325.841 303.38 324.724 302.573 323.668C301.859 322.706 301.083 321.744 300.308 320.844C298.508 318.765 296.615 316.747 294.536 314.947C293.76 314.264 292.736 315.289 293.419 316.065C295.188 318.175 296.956 320.285 298.57 322.52C299.315 323.575 300.059 324.6 300.804 325.655C301.487 326.679 302.045 327.734 303.1 328.448C303.907 329.069 304.869 328.076 304.683 327.207Z" fill="white"/>
<path id="Vector_33" d="M308.127 320.968C307.258 319.323 306.39 317.647 305.521 316.002C304.931 314.854 303.225 315.878 303.783 317.027C304.59 318.703 305.428 320.41 306.234 322.086C306.824 323.327 308.779 322.21 308.127 320.968Z" fill="white"/>
<path id="Vector_34" d="M251.032 366.778C261.554 366.778 270.085 358.246 270.085 347.722C270.085 337.197 261.554 328.665 251.032 328.665C240.51 328.665 231.98 337.197 231.98 347.722C231.98 358.246 240.51 366.778 251.032 366.778Z" fill="#273941"/>
</g>
<path id="Vector_35" d="M480.685 215.693L330.655 226.37L254.477 350.484L368.605 372.52C369.753 372.737 370.901 372.861 372.018 372.861C377.293 372.861 382.382 370.564 385.857 366.467L485.774 248.716L529.309 355.232L536.477 352.284L480.685 215.693ZM473.393 251.292L379.962 361.409C377.541 364.264 373.756 365.598 370.094 364.885L266.982 344.99L335.216 233.849L460.795 224.911C466.38 224.507 471.562 227.859 473.517 233.135L475.596 238.784C477.178 243.005 476.341 247.816 473.393 251.292Z" fill="#252A51"/>
<g id="Group_9">
<path id="Vector_36" d="M319.156 179.377L311.698 181.514L365.613 369.744L373.07 367.607L319.156 179.377Z" fill="#252A51"/>
</g>
<path id="Vector_37" d="M373.042 393.035C384.198 393.035 393.242 383.989 393.242 372.83C393.242 361.671 384.198 352.625 373.042 352.625C361.885 352.625 352.841 361.671 352.841 372.83C352.841 383.989 361.885 393.035 373.042 393.035Z" fill="#273941"/>
<path id="Vector_38" d="M302.821 191.981C304.931 191.671 306.979 190.926 309.089 190.523C311.323 190.088 313.619 190.057 315.885 190.119C330.189 190.429 344.308 194.123 358.613 193.533C359.885 193.471 361.344 193.285 362.057 192.261C362.709 191.267 362.43 189.871 361.685 188.971C360.94 188.071 359.854 187.481 358.768 186.984C350.576 183.105 341.919 180.312 333.261 177.549C319.888 173.266 305.924 167.711 291.992 165.694C288.175 165.135 282.341 165.166 280.697 169.48C278.897 174.197 283.272 181.584 286.22 185.029C290.254 189.685 296.522 192.881 302.821 191.981Z" fill="#252A51"/>
<g id="Group_10">
<g id="Group_11">
<g id="Group_12">
<path id="Vector_39" d="M487.48 75.7502L502.747 71.25C502.747 71.25 494.617 49.4935 474.386 51.7902C454.154 54.0869 441.37 63.1495 448.351 80.0022L459.553 90.4925L462.005 82.0506L487.48 75.7502Z" fill="#FCD96A"/>
</g>
<g id="Group_13">
<path id="Vector_40" d="M489.342 72.3983C489.342 72.3983 507.494 95.4272 501.537 99.493C495.579 103.59 473.982 99.2757 473.982 99.2757L466.38 105.266L455.147 83.7886L462.005 82.0196C462.005 82.0196 455.768 73.9811 462.005 71.7155C468.242 69.4498 473.362 75.7502 473.362 75.7502H475.441L489.342 72.3983Z" fill="#AF544F"/>
</g>
<g id="Group_14">
<path id="Vector_41" d="M467.807 95.3342C468.645 97.5688 469.638 99.7103 470.817 101.79L473.982 99.3068C473.982 99.3068 474.044 99.3068 474.168 99.3379C473.051 98.6551 471.996 97.8791 470.972 97.1032C469.979 96.3584 468.986 95.5825 467.807 95.3342Z" fill="#273941"/>
</g>
<g id="Group_15">
<path id="Vector_42" d="M480.343 85.4956L478.916 78.6056C478.916 78.6056 486.394 78.5745 491.793 75.7192C490.304 73.7018 489.311 72.3983 489.311 72.3983L475.409 75.7502H473.33C473.33 75.7502 473.175 75.533 472.865 75.2226L473.796 85.4956H480.343Z" fill="#273941"/>
</g>
<g id="Group_16">
<path id="Vector_43" d="M467.001 73.3294C463.618 72.3363 461.756 76.8986 463.06 79.4746C463.37 80.0643 464.239 79.8781 464.425 79.2884C464.766 78.2642 464.394 77.0848 464.922 76.1227C465.511 75.0364 466.504 75.2226 467.342 75.7813C466.69 76.433 466.194 77.24 465.977 78.14C465.728 79.2574 465.728 81.0575 466.845 81.7092C467.28 81.9575 467.683 81.7092 467.838 81.3057C468.18 80.4988 467.683 79.5988 467.683 78.7297C467.683 77.8918 467.838 77.2089 468.304 76.6193C469.452 77.9538 469.731 79.6608 470.662 81.1506C470.879 81.523 471.562 81.492 471.655 81.0264C472.214 78.0469 469.979 74.1984 467.001 73.3294Z" fill="#273941"/>
</g>
</g>
<path id="Vector_44" d="M394.732 365.071L386.416 385.989H439.539C439.539 385.989 429.703 374.009 414.094 372.768H405.654L411.054 358.708L394.732 365.071Z" fill="#10191C"/>
<g id="Group_17">
<path id="Vector_45" d="M448.321 80.0023C448.321 80.0023 393.677 46.5141 361.375 62.0633C329.073 77.6125 243.12 129.009 268.533 160.511C293.947 192.012 429.02 270.162 429.02 270.162C429.02 270.162 412.915 274.166 411.085 292.974C409.254 311.782 390.915 366.468 390.915 366.468L410.526 367.243C410.526 367.243 446.459 307.405 459.522 290.149C472.617 272.893 482.081 269.2 465.356 251.075C448.662 232.98 366.402 150.641 366.402 150.641C366.402 150.641 429.516 141.516 442.456 150.144C455.395 158.772 490.738 111.877 448.321 80.0023Z" fill="#545786"/>
</g>
<g id="Group_18">
<path id="Vector_46" d="M424.21 208.803C416.949 201.447 409.471 193.906 402.427 186.798C381.048 183.757 358.706 185.495 337.109 188.195C326.404 189.529 315.605 191.081 304.869 191.267C314.83 198.468 325.938 206.041 337.264 213.489C346.635 210.882 356.038 208.4 365.657 207.251C385.05 204.954 404.63 208.058 424.21 208.803Z" fill="#FCD96A"/>
</g>
<g id="Group_19">
<path id="Vector_47" d="M338.878 122.708C340.957 125.843 343.595 128.605 346.17 131.336C354.393 139.995 362.895 148.81 372.142 156.414C368.512 152.782 366.402 150.641 366.402 150.641C366.402 150.641 429.516 141.516 442.456 150.144C455.364 158.772 490.739 111.877 448.352 80.0023C448.352 80.0023 393.708 46.5141 361.406 62.0633C356.1 64.6083 349.335 68.1464 341.857 72.3984C338.692 77.7677 336.116 83.4163 334.565 89.4373C331.586 100.579 332.486 113.118 338.878 122.708Z" fill="#FCD96A"/>
</g>
<path id="Vector_48" d="M439.353 90.6167C448.662 104.118 452.292 121.653 447.979 137.451C452.044 138.94 456.73 135.992 458.529 132.019C460.329 128.047 459.957 123.484 459.274 119.201C458.188 112.404 456.388 105.7 454.185 99.1517C451.548 91.2995 448.228 83.5094 443.108 76.9918C437.988 70.4741 430.851 65.229 422.69 63.7082C418.128 62.8392 409.781 62.2185 406.058 65.1359C411.736 68.9844 418.718 71.0638 424.428 75.2848C430.168 79.5678 435.288 84.7198 439.353 90.6167Z" fill="#273941"/>
<path id="Vector_49" d="M381.823 114.484C397.711 122.77 415.429 127.084 433.271 128.853C434.016 131.429 432.309 134.192 429.982 135.495C427.655 136.799 424.862 136.923 422.193 136.923C391.505 136.799 362.523 119.605 343.253 95.7376C340.709 92.6029 338.226 89.0648 338.164 85.0301C338.04 77.9538 342.819 77.8917 346.294 82.423C349.676 86.8612 352.593 91.4235 356.472 95.5203C363.733 103.217 372.421 109.549 381.823 114.484Z" fill="#273941"/>
<path id="Vector_50" d="M425.917 60.7907C403.172 48.6555 375.679 45.5519 350.855 52.5971C337.544 56.3836 324.356 63.615 317.809 75.8123C316.195 78.7918 315.264 82.9817 317.809 85.1853C318.677 85.9302 319.794 86.3026 320.912 86.5509C329.786 88.6614 338.94 85.2784 347.628 82.5162C370.125 75.3468 393.77 71.8397 417.353 72.1811C420.021 72.2121 422.783 72.3052 425.296 71.3431C425.358 71.312 425.451 71.281 425.513 71.25C429.982 69.3878 430.199 63.0564 425.917 60.7907Z" fill="#C6616E"/>
<g id="Group_20">
<path id="Vector_51" d="M425.948 142.727C422.969 127.084 416.546 112.311 413.474 96.6998C413.071 94.6824 413.195 87.8544 410.681 87.2647C408.633 86.7682 404.63 92.9134 403.544 94.3721C399.169 100.176 395.911 106.787 394.049 113.801C391.101 124.85 391.629 136.768 395.508 147.506C405.841 146.699 417.166 146.172 426.351 146.699C426.382 145.334 426.165 143.968 425.948 142.727Z" fill="#EF7C2E"/>
</g>
<g id="Group_21">
<path id="Vector_52" d="M522.916 220.907C523.599 223.018 523.909 225.252 525.058 227.145C526.206 229.039 528.533 230.497 530.581 229.69C531.605 229.287 532.35 228.418 533.187 227.704C535.732 225.594 539.58 224.694 540.79 221.621C541.472 219.883 541.1 217.834 541.938 216.19C542.651 214.762 544.11 213.831 544.824 212.434C545.817 210.479 545.134 207.996 543.738 206.32C542.341 204.644 540.324 203.589 538.369 202.596C536.756 201.789 535.142 200.982 533.436 200.485C531.388 199.895 529.216 199.709 527.199 199.026C524.654 198.157 522.482 196.513 520.031 195.426C518.665 194.806 517.114 194.371 515.655 194.774C514.042 195.24 512.894 196.668 512.025 198.095C510.722 200.237 509.17 203.341 509.263 205.948C509.356 208.337 510.908 208.958 512.863 209.889C517.517 212.155 521.303 215.879 522.916 220.907Z" fill="#AF544F"/>
<path id="Vector_53" d="M528.254 199.337C527.912 199.244 527.54 199.151 527.199 199.026C524.654 198.157 522.482 196.513 520.031 195.426C518.665 194.806 517.114 194.371 515.655 194.774C514.042 195.24 512.894 196.668 512.025 198.095C510.722 200.237 509.17 203.341 509.263 205.948C509.356 208.337 510.908 208.958 512.863 209.889C514.88 210.851 516.742 212.124 518.324 213.614C523.01 210.075 526.516 204.985 528.254 199.337Z" fill="#7C3938"/>
<g id="Group_22">
<path id="Vector_54" d="M404.32 84.161C398.331 90.2131 396.283 99.1205 399.045 107.19C406.213 128.046 422.224 169.945 437.646 178.077C458.343 188.971 516.71 212.31 516.71 212.31L525.12 198.188C525.12 198.188 469.359 158.648 461.974 147.103C455.799 137.45 444.411 100.765 440.873 89.0958C439.539 84.6576 436.87 80.685 433.147 77.9227C427.22 73.4225 417.415 70.9396 404.32 84.161Z" fill="#545786"/>
</g>
<g id="Group_23">
<path id="Vector_55" d="M503.274 182.205C497.72 178.046 491.7 173.453 486.022 168.952C482.236 169.573 478.451 170.535 474.82 171.59C465.046 174.446 455.178 178.108 445 177.549C441.215 177.363 437.522 176.587 433.954 175.439C435.195 176.494 436.436 177.394 437.677 178.046C445.093 181.956 457.381 187.481 470.103 192.943C479.475 186.736 490.521 183.012 501.754 182.329C502.219 182.298 502.747 182.267 503.274 182.205Z" fill="#FCD96A"/>
<path id="Vector_56" d="M463.432 148.996C462.842 148.282 462.346 147.661 461.974 147.072C460.857 145.334 459.584 142.696 458.188 139.468C458.033 139.437 457.878 139.406 457.691 139.375C435.536 135.65 414.746 124.446 399.355 108.09C402.21 116.377 406.399 127.674 411.302 138.847C417.911 142.478 424.241 146.699 431.316 149.244C441.618 152.969 453.223 152.844 463.432 148.996Z" fill="#FCD96A"/>
</g>
</g>
</g>
<path id="Vector_57" d="M439.756 261.223C440.718 260.044 441.587 258.616 441.463 257.095C441.277 254.861 439.136 253.402 437.212 252.285C411.922 237.481 386.664 222.645 361.375 207.841C353.214 209.144 345.177 211.255 337.202 213.489C336.551 213.055 335.868 212.62 335.216 212.186C374.904 238.443 418.221 263.861 427.282 269.138C432.154 267.648 436.529 265.227 439.756 261.223Z" fill="#3A3E68"/>
<path id="Vector_58" d="M329.879 189.095C319.484 182.639 309.338 175.873 299.749 168.301C292.892 162.931 286.282 157.065 281.504 149.803C276.632 142.385 274.119 133.633 273.839 124.788C263.91 137.513 260.155 150.082 268.564 160.479C275.236 168.735 289.416 180.188 306.7 192.571C306.079 192.136 305.459 191.671 304.838 191.236C313.185 191.112 321.563 190.15 329.879 189.095Z" fill="#3A3E68"/>
<path id="Vector_59" d="M361.406 207.841C358.954 206.413 356.503 204.954 354.052 203.527C345.953 198.778 337.854 194.03 329.91 189.095C321.594 190.15 313.185 191.112 304.869 191.267C305.49 191.702 306.11 192.168 306.731 192.602C306.762 192.633 306.762 192.633 306.793 192.664C309.306 194.464 311.851 196.264 314.488 198.095C314.519 198.126 314.55 198.158 314.613 198.158C315.233 198.592 315.854 199.027 316.474 199.461C316.505 199.492 316.536 199.492 316.567 199.523C318.522 200.889 320.539 202.254 322.556 203.651C322.618 203.682 322.68 203.744 322.742 203.775C323.332 204.179 323.922 204.582 324.511 204.986C324.604 205.048 324.697 205.11 324.79 205.172C325.411 205.575 326.001 206.01 326.621 206.413C326.683 206.444 326.714 206.475 326.776 206.506C328.142 207.406 329.476 208.337 330.872 209.237C330.934 209.3 331.027 209.331 331.089 209.393C331.679 209.796 332.269 210.169 332.858 210.572C332.982 210.665 333.137 210.758 333.262 210.851C333.82 211.224 334.379 211.596 334.906 211.938C335.03 212.031 335.154 212.093 335.278 212.186C335.93 212.62 336.613 213.055 337.264 213.489C345.208 211.255 353.214 209.144 361.406 207.841Z" fill="#EF7C2E"/>
<path id="Vector_60" d="M374.314 367.647C373.104 366.964 371.583 367.181 370.653 368.206C369.318 369.664 369.753 371.992 371.521 372.861C381.234 377.61 405.22 391.855 405.22 391.855H416.577L374.314 367.647Z" fill="#252A51"/>
<path id="Vector_61" d="M425.327 384.717H395.694C393.397 384.717 391.536 386.579 391.536 388.876C391.536 391.172 393.397 393.035 395.694 393.035H425.327C427.623 393.035 429.485 391.172 429.485 388.876C429.485 386.579 427.623 384.717 425.327 384.717Z" fill="#273941"/>
</g>
</g>
</g>
</svg>
